# xmcd CD database file
# Copyright (C) 1997 Ti Kan
# 
# Track frame offsets:
#     150
#     18310
#     32002
#     49187
#     62760
#     74187
#     87132
#     96502
#     106690
#     117927
#     133502
#     147400
# 
# Disc length: 2139 seconds
# 
# Revision: 1
# Processed by: cddbd v1.4b41PL1 Copyright (c) Steve Scherf et al.
# Submitted via: DiscPlay 4.0.4
# 
DISCID=aa08590c
DTITLE=Mel Mcdaniel - Baby's Got Her Blue Jeans On
DYEAR=1900
DGENRE=
TTITLE0=C'mon Sixty-five
TTITLE1=Louisiana Moon
TTITLE2=Mama's Bible
TTITLE3=Baby's Got Her Blue Jeans On
TTITLE4=Stand Up
TTITLE5=Big Ole Brew
TTITLE6=Let It Roll
TTITLE7=Louisiana Saturday Night
TTITLE8=Stand On It
TTITLE9=Hello Daddy, Good Morning Darling
TTITLE10=Out Of The Question
TTITLE11=Inseperable
EXTD=
EXTT0=
EXTT1=
EXTT2=
EXTT3=
EXTT4=
EXTT5=
EXTT6=
EXTT7=
EXTT8=
EXTT9=
EXTT10=
EXTT11=
PLAYORDER=
